<svg width="104" height="48" viewBox="0 0 104 48" fill="none" xmlns="http://www.w3.org/2000/svg">
<path d="M98.8992 9.12723C97.1433 5.75223 93.5255 3.97953 88.9148 3.8943L77.7029 3.75367C76.2785 3.73601 74.854 3.82145 73.4418 4.00934L69.747 4.50367L33.9603 4.35879L30.5811 3.40849C30.5811 3.40849 17.017 3.2423 15.7089 3.47242C14.4007 3.70253 13.1518 4.41419 10.7229 4.95964C7.84663 5.60308 4.42893 5.98234 2.7883 10.5207C1.27774 14.8208 0.515297 19.348 0.534038 23.9057C0.515038 28.4618 1.27748 32.9877 2.7883 37.2863C4.42893 41.8248 7.84663 42.204 10.7229 42.8518C13.1563 43.397 14.4048 44.13 15.7089 44.3389C17.0129 44.5477 30.5811 44.4029 30.5811 44.4029L33.9603 43.4355L69.7555 43.3077L73.4503 43.7977C74.8625 43.9877 76.2866 44.0733 77.7114 44.0533L88.9233 43.917C93.534 43.8318 97.1518 42.0592 98.9077 38.684C102.977 30.8729 103.241 28.6785 103.241 26.3261V21.4895C103.233 19.1287 102.969 16.9341 98.8992 9.12723Z" fill="white"/>
<path d="M45.5129 9.78347L47.051 5.94824C41.4433 6.11869 29.4473 6.60021 22.267 7.69539L23.017 10.2522C28.9318 10.1457 38.6903 9.97521 45.5129 9.78347Z" fill="#E5E5E5"/>
<path d="M21.5555 7.802C20.8777 7.91278 20.2214 8.02785 19.5992 8.15141C16.8251 8.69689 14.9844 9.16137 13.7103 10.346C13.7103 10.346 17.2214 10.3119 22.28 10.2437L21.5555 7.802Z" fill="#E5E5E5"/>
<path d="M49.2799 5.91417C48.2611 7.11673 47.3403 8.39929 46.527 9.7494C50.0085 9.63862 53.0725 9.51077 55.267 9.36588C62.0429 8.87069 68.7699 7.84336 75.3848 6.29343C67.514 5.98662 58.0966 5.77354 49.2799 5.91417Z" fill="#E5E5E5"/>
<path d="M23.1193 11.5178V22.6443C23.1193 22.6443 32.4944 21.0931 45.4915 21.8261V10.9894L23.1193 11.5178Z" fill="#E5E5E5"/>
<path d="M89.5967 5.57752C89.5967 5.57752 92.3282 6.15282 93.5426 7.49937C94.7571 8.84596 97.7785 12.5576 99.5085 13.8147C99.5085 13.8147 100.19 12.8389 98.4304 10.4994C96.1548 7.42267 94.4163 4.70819 89.5967 5.57752Z" fill="url(#paint0_linear_48_32)"/>
<path d="M10.8978 6.11448C10.9322 6.10715 10.9622 6.0864 10.9815 6.05681C11.0007 6.02726 11.0074 5.99129 11 5.95681C10.9926 5.92233 10.9718 5.89222 10.9422 5.87304C10.9126 5.85385 10.8767 5.84722 10.8422 5.85452C9.56406 5.99089 7.66332 6.34459 6.2274 7.29063C4.86788 8.19403 4.07955 10.2395 3.64488 11.6031C3.63699 11.6381 3.64158 11.6746 3.65784 11.7066C3.67407 11.7384 3.70095 11.7636 3.73381 11.7778C3.7667 11.7919 3.80347 11.7941 3.83784 11.784C3.87218 11.774 3.90192 11.7522 3.92188 11.7224C4.63351 10.444 5.86506 8.56903 7.26703 7.721C8.40851 7.04185 9.6274 6.50248 10.8978 6.11448Z" fill="#E5E5E5"/>
<path d="M67.0581 5.67553L65.1662 1.1116C65.1392 1.04671 65.1292 0.976269 65.1362 0.906491C65.1436 0.836676 65.1677 0.769714 65.207 0.711528C65.2462 0.653343 65.2992 0.605751 65.3614 0.572973C65.4233 0.540158 65.4921 0.523195 65.5625 0.523566H66.7514C66.8958 0.523343 67.0384 0.551862 67.1714 0.607454C67.3047 0.663084 67.4255 0.744639 67.527 0.847417L72.3295 5.67553H67.0581Z" fill="white"/>
<path d="M45.5129 38.0237L47.051 41.8588C41.4433 41.6881 29.4473 41.2111 22.267 40.1159L23.017 37.5588C28.9318 37.6614 38.6903 37.8359 45.5129 38.0237Z" fill="#E5E5E5"/>
<path d="M21.5555 40.0051C20.8777 39.8985 20.2214 39.7837 19.5992 39.66C16.8251 39.1144 14.9844 38.65 13.7103 37.4651C13.7103 37.4651 17.2214 37.4951 22.28 37.5677L21.5555 40.0051Z" fill="#E5E5E5"/>
<path d="M49.2799 41.897C48.2611 40.6944 47.3403 39.4118 46.527 38.0618C50.0085 38.1726 53.0725 38.3004 55.267 38.4455C62.0429 38.9407 68.7699 39.9681 75.3848 41.5178C67.514 41.8204 58.0966 42.0378 49.2799 41.897Z" fill="#E5E5E5"/>
<path d="M78.1933 8.12577C71.9118 8.07466 55.9233 10.2309 49.0284 10.7849V37.0222C55.9318 37.5974 71.9118 39.7281 78.1933 39.6855C80.0029 34.6285 80.8962 29.2892 80.831 23.9184C80.8992 18.5391 80.0058 13.1909 78.1933 8.12577Z" fill="#E5E5E5"/>
<path d="M23.1193 36.2933V25.1628C23.1193 25.1628 32.4944 26.7182 45.4915 25.9852V36.8178L23.1193 36.2933Z" fill="#E5E5E5"/>
<path d="M89.5967 42.2337C89.5967 42.2337 92.3282 41.6585 93.5426 40.3077C94.7571 38.9566 97.7785 35.2492 99.5085 33.9922C99.5085 33.9922 100.19 34.9726 98.4304 37.3077C96.1548 40.3885 94.4163 43.1029 89.5967 42.2337Z" fill="url(#paint1_linear_48_32)"/>
<path d="M10.8977 41.697C10.9277 41.7077 10.9525 41.7292 10.9677 41.7573C10.9829 41.7851 10.9877 41.8173 10.981 41.8485C10.9743 41.8799 10.9566 41.9073 10.931 41.9266C10.9055 41.9459 10.874 41.9548 10.8421 41.9525C9.56398 41.8203 7.66324 41.4666 6.22731 40.5207C4.86779 39.6299 4.0965 37.5677 3.64479 36.2125C3.62898 36.1729 3.6295 36.1285 3.64627 36.0896C3.66305 36.0507 3.69472 36.0196 3.73428 36.0036C3.77383 35.9877 3.81805 35.9885 3.8572 36.0055C3.89639 36.0218 3.92728 36.0536 3.94309 36.0933C4.65472 37.3714 5.88628 39.2466 7.28842 40.0903C8.42324 40.7673 9.63472 41.307 10.8977 41.697Z" fill="#E5E5E5"/>
<path d="M67.0581 42.1315L65.1663 46.6955C65.1385 46.7607 65.1278 46.8315 65.1341 46.9018C65.1411 46.9726 65.1648 47.0396 65.2044 47.0985C65.2437 47.1574 65.297 47.2055 65.3596 47.2385C65.4218 47.2715 65.4918 47.2885 65.5626 47.2878H66.7515C67.0426 47.2867 67.3211 47.1696 67.527 46.9641L72.3296 42.1315H67.0581Z" fill="white"/>
<path d="M21.6192 11.7948L7.02405 12.907C5.49857 16.2309 5.27698 23.8332 5.27698 23.8332C5.27698 23.8332 5.49857 31.4311 7.02405 34.7551L21.6192 35.8674L21.2655 23.8332L21.6192 11.7948Z" fill="#E5E5E5"/>
<path d="M103.233 23.9057L101.009 23.5094C101.009 23.1344 101.051 23.0151 101.217 22.998C101.159 22.8464 101.06 22.7138 100.932 22.6145C100.791 22.9306 100.71 23.2702 100.693 23.6159L101.047 23.9057L100.693 24.1955C100.71 24.5399 100.791 24.8781 100.932 25.1926C101.061 25.0958 101.16 24.9643 101.217 24.8134C101.051 24.8134 101.009 24.677 101.009 24.302L103.233 23.9057Z" fill="#C4C4C4"/>
<path d="M100.591 23.9056C100.583 23.4473 100.674 22.9926 100.855 22.5718C100.804 22.5401 100.75 22.5131 100.693 22.4908C100.324 23.3978 100.324 24.4134 100.693 25.3204C100.693 25.3204 100.753 25.2948 100.855 25.2394C100.674 24.8184 100.584 24.3639 100.591 23.9056Z" fill="#C4C4C4"/>
<defs>
<linearGradient id="paint0_linear_48_32" x1="99.6078" y1="12.9938" x2="99.6078" y2="5.37389" gradientUnits="userSpaceOnUse">
<stop stop-color="#1B203A"/>
<stop offset="0.559162" stop-color="#353B57"/>
<stop offset="1" stop-color="#494F6D"/>
</linearGradient>
<linearGradient id="paint1_linear_48_32" x1="99.6385" y1="31.9955" x2="99.6385" y2="42.484" gradientUnits="userSpaceOnUse">
<stop stop-color="#1B203A"/>
<stop offset="0.503115" stop-color="#353B57"/>
<stop offset="1" stop-color="#494F6D"/>
</linearGradient>
</defs>
</svg>
